<?xml version="1.0" encoding="UTF-8"?>
<svg id="Layer_1" data-name="Layer 1" xmlns="http://www.w3.org/2000/svg" viewBox="0 0 700 186.98">
  <defs>
    <style>
      .cls-1 {
        fill: #2a4ddd;
      }
    </style>
  </defs>
  <path d="M194.94,148.76v19.07h-64.49v-88.75h22.43v69.68h42.06Z"/>
  <path d="M225.93,74.17c.28,3.37.42,6.17.42,8.41,0,1.31-.02,2.64-.07,4-.05,1.35-.16,2.87-.35,4.56-1.96.38-3.88.66-5.75.84-1.87.19-3.74.28-5.61.28s-3.58-.09-5.4-.28c-1.82-.19-3.67-.47-5.54-.84-.19-1.59-.33-3.06-.42-4.42-.09-1.35-.14-2.68-.14-4,0-1.21.05-2.52.14-3.93.09-1.4.23-2.94.42-4.63,1.87-.47,3.76-.77,5.68-.91,1.92-.14,3.81-.21,5.68-.21s3.58.07,5.4.21c1.82.14,3.67.44,5.54.91ZM225.93,167.82h-22.43v-68.28h22.43v68.28Z"/>
  <path d="M238.4,147.21c7.29,2.06,15.37,3.08,24.25,3.08,4.3,0,7.52-.14,9.67-.42,2.15-.28,3.6-.75,4.35-1.4.75-.65,1.12-1.54,1.12-2.66,0-1.59-.58-2.57-1.75-2.95-1.17-.37-3.48-.89-6.94-1.54l-11.08-2.1c-7.1-1.4-12.22-3.62-15.35-6.66-3.13-3.04-4.7-7.59-4.7-13.67,0-8.22,2.45-13.83,7.36-16.82,4.91-2.99,12.73-4.49,23.48-4.49,6.45,0,12.13.35,17.04,1.05,4.91.7,8.99,1.57,12.27,2.59l-.28,16.96-.42.42c-7.57-2.43-15.84-3.65-24.82-3.65-4.39,0-7.45.3-9.18.91-1.73.61-2.59,1.8-2.59,3.57,0,.94.26,1.68.77,2.24.51.56,1.7,1.1,3.58,1.61,1.87.51,4.81,1.15,8.83,1.89l10.23,1.96c5.7,1.22,9.91,3.22,12.62,6.03,2.71,2.8,4.07,7.25,4.07,13.32,0,5.33-.98,9.56-2.94,12.69-1.96,3.13-5.26,5.35-9.88,6.66s-11.01,1.96-19.14,1.96c-6.17,0-11.85-.3-17.03-.91-5.19-.61-9.84-1.33-13.95-2.17v-17.24l.42-.28Z"/>
  <path d="M314.25,146.09v-29.44h-8.41v-18.23h10.51l4.21-16.68h16.12v16.68h15.28v18.23h-15.28v24.54c0,2.62.33,4.42.98,5.4.65.98,2.15,1.47,4.49,1.47,1.49,0,3.08-.07,4.77-.21,1.68-.14,3.36-.3,5.05-.49l.42.28v18.23c-4.49,1.31-10.42,1.96-17.81,1.96s-12.62-1.68-15.7-5.05c-3.08-3.36-4.63-8.92-4.63-16.68Z"/>
  <path d="M425.15,164.32c-2.62.94-6.24,1.75-10.87,2.45s-10.12,1.05-16.47,1.05c-8.04,0-14.89-1.05-20.54-3.16-5.66-2.1-9.93-5.7-12.83-10.79-2.9-5.09-4.35-12.17-4.35-21.24,0-12.34,2.83-21.26,8.48-26.78,5.65-5.51,14.42-8.27,26.29-8.27,8.5,0,15.21,1.22,20.12,3.65,4.91,2.43,8.41,5.87,10.51,10.3,2.1,4.44,3.15,9.7,3.15,15.77,0,1.78-.07,3.69-.21,5.75-.14,2.06-.4,4.06-.77,6.03l-.56.56h-46.13c.65,4.11,2.59,6.82,5.82,8.13,3.22,1.31,8.48,1.96,15.77,1.96,4.86,0,8.9-.12,12.13-.35,3.22-.23,6.52-.58,9.88-1.05l.56.42v15.56ZM409.17,124.92c0-2.24-.35-4.18-1.05-5.82-.7-1.63-2.08-2.9-4.14-3.78-2.06-.89-5.09-1.33-9.11-1.33-5.89,0-9.74,1-11.57,3.01-1.82,2.01-2.73,4.65-2.73,7.92h28.6Z"/>
  <path d="M463,167.82h-22.43v-68.28h18.23l1.82,14.02h.42c.84-5.23,2.85-9,6.03-11.29,3.17-2.29,7.9-3.44,14.16-3.44,2.52,0,4.81.12,6.87.35,2.06.23,3.78.44,5.19.63v21.87l-.28.28c-1.5-.37-3.2-.7-5.12-.98-1.92-.28-4.09-.42-6.52-.42-3.46,0-6.57.56-9.32,1.68-2.76,1.12-4.91,3.29-6.45,6.52-1.54,3.22-2.31,8.01-2.31,14.37l-.28,24.68Z"/>
  <path class="cls-1" d="M524.27,74.17c.28,3.37.42,6.17.42,8.41,0,1.31-.02,2.64-.07,4-.05,1.35-.17,2.87-.35,4.56-1.96.38-3.88.66-5.75.84-1.87.19-3.74.28-5.61.28s-3.57-.09-5.4-.28c-1.82-.19-3.67-.47-5.54-.84-.19-1.59-.33-3.06-.42-4.42-.09-1.35-.14-2.68-.14-4,0-1.21.05-2.52.14-3.93s.23-2.94.42-4.63c1.87-.47,3.76-.77,5.68-.91,1.92-.14,3.81-.21,5.68-.21s3.57.07,5.4.21c1.82.14,3.67.44,5.54.91ZM524.27,167.82h-22.43v-68.28h22.43v68.28Z"/>
  <path class="cls-1" d="M562.26,167.82h-22.43v-68.28h21.31l1.12,12.48h.42c1.31-4.21,3.65-7.45,7.01-9.74,3.37-2.29,8.04-3.44,14.02-3.44,8.13,0,14.13,2.29,18.01,6.87,3.88,4.58,5.82,12.53,5.82,23.83v38.28h-22.43l-.14-33.93c0-5.23-.79-8.97-2.38-11.22-1.59-2.24-4.58-3.37-8.97-3.37-4.11,0-7.01,1.01-8.69,3.01-1.68,2.01-2.57,5.45-2.66,10.31v35.19Z"/>
  <path class="cls-1" d="M618.06,132.91c0-12.52,2.67-21.54,7.99-27.06,5.33-5.51,14.35-8.27,27.06-8.27,8.5,0,15.33,1.22,20.47,3.65,5.14,2.43,8.85,6.24,11.15,11.43,2.29,5.19,3.43,11.94,3.43,20.26s-1.15,14.91-3.43,20.05c-2.29,5.14-6.01,8.9-11.15,11.29-5.14,2.38-11.97,3.57-20.47,3.57-12.71,0-21.73-2.73-27.06-8.2-5.33-5.47-7.99-14.37-7.99-26.71ZM653.11,148.62c5.42,0,9.09-1.19,11.01-3.58,1.91-2.38,2.87-6.56,2.87-12.55s-.96-9.79-2.87-12.27c-1.92-2.48-5.59-3.72-11.01-3.72s-8.86,1.24-10.87,3.72c-2.01,2.48-3.01,6.57-3.01,12.27,0,5.98,1,10.17,3.01,12.55,2.01,2.39,5.63,3.58,10.87,3.58Z"/>
  <g>
    <path class="cls-1" d="M59.74,113.15v54.67h54.67v-54.67h-54.67ZM101.65,155.06h-29.14v-29.14h29.14v29.14Z"/>
    <path class="cls-1" d="M19.26,27.75v97.23h54.67V27.75H19.26ZM61.17,112.22h-29.14V40.51h29.14v71.71Z"/>
    <rect class="cls-1" x="35.21" y="47.41" width="22.47" height="9.84" rx=".8" ry=".8"/>
    <rect class="cls-1" x="35.36" y="59.99" width="22.47" height="9.84" rx=".8" ry=".8"/>
    <rect class="cls-1" x="35.36" y="72.87" width="22.47" height="9.84" rx=".8" ry=".8"/>
    <g>
      <rect class="cls-1" x="29.04" y="92.72" width="22.47" height="9.84" rx=".8" ry=".8" transform="translate(137.92 57.37) rotate(90)"/>
      <rect class="cls-1" x="41.67" y="92.72" width="22.47" height="9.84" rx=".8" ry=".8" transform="translate(150.55 44.73) rotate(90)"/>
    </g>
  </g>
</svg>