<?xml version="1.0" encoding="UTF-8"?>
<svg xmlns="http://www.w3.org/2000/svg" viewBox="0 0 776 776">
  <defs>
    <style>
      .cls-1 {
        fill: #f5e4c4;
      }

      .cls-2 {
        fill: #e0a167;
      }

      .cls-3 {
        fill: #5b7545;
      }

      .cls-4 {
        fill: #2e190e;
      }

      .cls-5 {
        fill: #d29455;
      }

      .cls-6 {
        fill: #ba7643;
      }
    </style>
  </defs>
  <g id="Layer_2" data-name="Layer 2">
    <rect class="cls-6" x="567" y="334.88" width="141.78" height="258.12"/>
    <rect class="cls-5" x="194.43" y="361.01" width="115.93" height="115.93"/>
  </g>
  <g id="Layer_1" data-name="Layer 1">
    <path class="cls-4" d="M746,501.5c-2.68-30.7-12.3-64.61-13.04-94.96-.25-10.41,3.62-23.04,4.08-34,1.68-40.25-7.47-66.11-38.57-91.51-24.9-20.34-68.41-42.78-99.78-25.83-28.56,15.43-51.7,54.29-60.9,84.59-1.51,2.16-35.77,2.43-37.88,5.87-2.18,3.55-2.79,29.2-1.47,33.39.51,1.62,1.81,2.89,3.21,3.79l14.34,8.15c-10.75,1.14-21.64,1.8-32.37,3.13-8.58,1.07-24.8,5.06-32.16,4.9-1.31-.03-22.07-8.18-23.02-8.97-1.21-1.02-1.54-1.71-1.3-3.31.11-.73,4.35-12.54,4.77-13.1.51-.67,12.66-5.28,15.39-6.85,16-9.14,28.75-25.64,26.41-45.02-.63-5.2-4.07-16.23-10.28-16.75-7.23-.61-4.7,7.06-5.64,11.27-1.01,4.54-9.06,9.88-13.79,9.7,1.12-8.57,1.69-18.81.98-27.48-1.13-13.72-8.2-27.55-8.97-41.03-.3-5.25,1-9.47,1.03-13.95.11-19.42.97-39.4-4.86-58.08,15.18-5.73,28.66-13.09,26.71-31.86-.92-8.9-9.38-21.93-19.42-21.66-10.44.28,4.89,16.13-9.46,16.06-.15-7.69-2.3-14.45-7.03-20.48-1.64-2.09-7.35-6.49-7.83-8.25-.44-1.61,6.77-26.94,7.54-32.09,5.88-39.62.91-65-43.2-70.17-89.64-10.52-219.62,54.1-262.66,134.31-13.63,25.41-10.3,45.22,12.84,62.5,4.1,3.06,27.15,15.23,27.41,16.82,1.4,8.78-14.47,16.06-19.59,22.34-3.63,4.45-8.67,13.98-9.4,19.6-4.54,34.72,21.54,72.37,57.92,73.42-1.32,7.68-2.22,15.53-1.96,23.33-37.6,15.09-81.39,30.13-109.07,61.13-40.18,44.99-45.05,134.2-48,192.09-.91,17.9-2.15,31.54,2.32,49.64,1.99,8.06,5.26,15.87,11.16,21.84,2.84,2.87,8.08,5.44,10.57,8.43,4.95,5.96,6.48,12.29,13.51,18.49,19.76,17.43,60.93,20.04,86.47,21.03,5.37-1.67,13.55-1.68,19,0,.33,0,.67,0,1,0,6.07-1.95,13.55-.86,20-1,35.26-.77,70.11-7.32,104.53-14.51,11.85,3.7,23.44,5.15,35.72,3.25,2.64-.41,7.57-2.78,9.31-2.7,1.91.09,3.7,3.04,5.76,4.15,13.66,7.43,26.59,6,38.61-3.78,2.66-2.16,6.65-8.03,8.12-8.88,7.12-4.11,11.97-2.56,18.4-11.6,1.99-2.8,4.2-10.03,5.83-11.67,1.12-1.12,5.2-2.15,7.06-3.44,5.08-3.51,7.52-9.5,10.15-14.85l5.52-19.98v39.5c0,1.84,4.67,4.75,6.33,5.67,21.23,11.78,47.33,20.64,69.23,31.76,35.41-2.8,70.51-9.97,105.68-15.2,9.88-3.64,4.87-18.16,4.72-26.2-.36-19.16.35-38.38.05-57.54,24.67,8.86,52.47,14.56,76.67,1.17,45.55-25.21,47.33-88.86,43.32-134.67ZM540.35,349.92l3.65,6.07c-5.46-.94-11.87,2.53-16.98.49-.63-.25-.8-1.37-1.01-1.49-1.41-.76-3.52-1.19-4-2.99l18.35-2.08ZM565.06,379.39c-.36,1.3-5.73,1.38-7.06,1.61-.62.11-1.36-.09-2,0-.23.03-1.11.88-2.41,1.05-6.92.86-14.6.47-21.58,1.95-.07-2.32.07-4.68,0-7-.04-1.33-.02-2.67,0-4,.03-1.67-.03-3.34,0-5.01,8.05-.32,15.93-1.71,24.01-1.99.33-.01.67.02,1,0,.29-.98,1.15-.92,2-1,.65-.06,1.34,0,2,0,.91,0,3.87-.15,4,0,.5.52-.41,12.22.06,14.39ZM508,374v-17l14,8.5v15.5c-2.43.59-4.59-3.23-6-4-.73-.4-8-2.57-8-3ZM479,406c.67.02,1.33,0,2,0l62-7c.33,0,.67,0,1,0,.96.02,2.16-.15,3,0,2.38.44,4.12,1.95,6,3,3.24.42,8.77,1.58,11,3.99l-35,2.01c-.33.03-.67-.03-1,0-.07,0-.3.93-1,1-.65.07-1.34-.07-2,0-5.64.56-11.35,1.42-17,2-.98.1-2.02-.09-3,0-10.11.96-12.51,3.11-23,0-.89-.26-1.46-.81-2-1-2.23-.79-5.6-1.39-7.99-2.01.66-1.86,5.41-2.04,6.99-1.99ZM453,412c.2-.07.7-.03,1,0,.79.07,4.69,1.55,6,2,4.4,1.5,8.91,3.77,13,6,1.89-.04,3.92.28,5,2,.32.06.68-.05,1,0,.72.12,2.14-.51,2.02.61.26,7.21-.16,14.33-1.51,21.38-3.21-2.3-26.2-10.55-27.02-11.98-1.57-2.72-2.75-18.85.51-20.01ZM451,450c.02-.33-.04-.67,0-1,.15-1.42.24-4.63,2-5,3.47-.73,52.34,23.52,60,26,2.44,2.38.26,16.31,1,20.5-.41,1.45-.95-.48-1-.5-18.09-5.2-42.27-17.84-60-26-.47-.21-1.91.62-2.05-.59.29-4.44-.24-8.98.05-13.41ZM513.99,589c-1.45.41-2.01-.59-2.99-1-6.34-2.61-12.4-6.01-19-8v-21c4.24,2.14,18.42,6.11,21,9,2.5,2.8.22,16.5.99,21ZM514,556l-63-26v-21l63,26v21ZM480.99,574c-1.64.42-2.74-.61-3.99-1-8.58-2.63-17.61-8.01-26-11.5v-19.5c1.41-.18,2.68.08,4.03.47,6.7,1.95,13.55,7.27,19.97,9.53,1.15.4,4.68.11,5.05,1.66l.95,20.34ZM451,496.5v-21.5c3.57,1.33,6.53,3.49,10,5,.28.12.71-.12,1,0,.81.33,1.47.79,2,1,1.05.42,3.74.39,4.04,1.66l-.05,21.33c-.37.41-3.9-1.56-4.99-1.99-4.04-1.59-8.5-2.79-12-5.5ZM489.99,513c-.82.86-11.5-3.39-11.99-5-.42-1.37-.13-7.95,0-10,.04-.66-.07-1.35,0-2v-9s8,3,8,3l4.04,1.67-.05,21.33ZM378.48,31.02c6.78.55,22,4.39,26.53,9.47,10.9,12.24,2.73,53.27-2.03,68.52-13.93-4.46-28.93-5.36-43.53-5.05-2.28.05-4.53,1.7-6,.1-2.48-24.99-7.4-50.39-20.46-72.04,14.42-.82,31.08-2.17,45.48-.99ZM388.51,132.01c-59.16,6.41-108.62,20.67-158.82,53.18-7.24,4.69-27.16,21.64-34.02,21.46-11.62-.3-.43-12.63,3.36-17.12,36.01-42.61,97.54-69.33,152.77-73.23,8.22-.58,44.86-1.27,48.7,6.7,5.01,10.36-6.71,8.44-11.99,9.01ZM321.81,35.2c8.46,15.47,15.2,33.02,17.92,50.58.95,6.14.37,13.18,2.28,19.22-30.04,4.26-59.34,12.79-87,25.01-4.35-21.78-14.78-41.47-24.25-61.31l-.34-2.71c28.56-14.65,59.5-26.48,91.39-30.79ZM140.69,204.81c-26.4-18.22-20.36-34.59-4.5-58.13,15.57-23.1,40.83-46.37,63.49-62.51,2.95-2.1,18.01-13.19,20.31-11.75,1.54.96,10.74,21.46,12.18,24.89,5.27,12.58,9.4,25.64,13.75,38.55-34.17,18.85-62.04,47.57-81.58,81.2-2.58.54-20.34-9.97-23.65-12.25ZM144.5,269c7.17-15.65,25.93-17.79,38.04-6.05,6.76,6.56,14.24,25.73,20.11,29.89,8.64,6.11,21.99.94,26.53-8.17,5.83-11.68,2.21-24.03-5.1-34.03,12.65-13.45,12.16-33.58,4.94-49.57,27.05-10.68,55.63-39.19,86.38-35.96,25.93,2.72,48.37,21.04,74.12,22.88,9.33.67,18.33-1.05,27.38-2.91,2.54,4.75,2.82,9.8,4.1,14.91-10.77-2.77-22.28-7.22-32.93-1.42-4.85,2.64-9.99,8-9.98,13.84.02,11.12,11.87.82,17.65-.17,6.89-1.18,23.61,1.86,26.75,8.78,2.48,5.45-1.21,32.47-.47,41.47,1.58,19.22,13.67,38.01,7.98,58.51-6.68-2.25-12.72-6.32-19.89-7.1-.3-30.57-34.61-44.2-37.09-74.41-.29-3.57,1.26-13.61.9-14.83-1.95-6.63-7.82,4.41-8.63,7.13-4.32,14.35,1.99,30.59,9.91,42.53,10.16,15.32,31.03,30.39,19.99,51.37-12.44,23.65-38.73,3.38-55.89-1.48-1.99-1.08-5.17-4.01-5.86-6.15-1.55-4.85,4.74-18.56-5.18-14.29-6.32,2.72-5.68,11.58-7.23,12.77-.69.52-6.35,1.99-8.69,3.31-7.23,4.06-14.66,12.49-23.07,13.93-12.75,2.18-21.31-3.51-27.09-14.44-1.35-2.56-2.54-9.43-4.84-10.19-6.74-2.23-11.37,9.37-12.08,14.63-4.35,32.39,30.03,59.29,60.24,59.31,5.67,0,16.97-3.39,20.79-2.86,3.2.44,12.64,5.96,17.72,7.29,15.25,3.97,28.84,2.68,41-7.98,1.55-1.36,4.92-6.19,5.64-6.4,3.13-.91,19.29,4.94,24.35,2.89-2.07,15.84-15.99,24.92-25.52,35.98-9.74,11.29-12.45,21.98-27.5,28.5-16.31,7.06-32.86,5.92-48.28-2.68-5.08-2.83-11.42-9.77-15.45-11.55-3.41-1.5-8.76-1.39-12.46-2.54-32.18-10.07-60.21-30.43-74.27-61.73-2.34-5.21-9.56-32-10.93-33.07-2.92-2.3-7.63,1.27-11.35,1.83-29.66,4.48-56.71-35.58-44.74-61.74ZM378.98,368.5c-5.55,6.21-16.26,9.98-24.45,9.49-1.31-.08-10.15-1.62-10.53-2-1.53-1.53.52-1.73,1.29-2.23,6.33-4.12,15.15-6.54,21.37-11.56l12.32,6.3ZM352.17,476.67c2.47-4.63,6.24-16.79,8.38-19.62,1.51-2,7.18-3.36,9.44-5.04.74,6.23,8.89,26.2,6.52,31-.87,1.77-7.7,5.15-9.84,6.16-3.49,1.66-28.37,11.79-29.67,10.82,4.63-8.02,10.79-15.12,15.17-23.32ZM316.47,506c-8.16-5.91-13.77-14.22-22.55-19.42-19.22-11.38-35.29-13.57-54.92-28.58-23.39-17.89-36.95-38.03-41-68-1.14-8.46-1.93-17.63.01-26,.88-.66,9.96,17.27,10.99,19,.38.63.61,1.37,1,2,.47.76.74,1.61,1,2,.22.34.74.62,1,1,.6.88,1.53,2.36,2,3,.19.27.66.55,1,1,.7.92.9,1.88,1,2,.29.36.7.64,1,1,.3.35.69.65,1,1,.3.35.68.65,1,1,3.1,3.42,6.52,6.97,10,10,16.31,14.21,35.59,23.98,56,31,2.5.86,6.1.57,8.74,1.76,4.05,1.83,10.62,8.4,15.94,11.06,10.84,5.4,23.24,7.81,35.31,7.19,2.08,1.87-25.15,43.87-28.53,47.99ZM47.13,545.63c5.85-43.4,16.59-91.25,52.41-119.59,23.48-18.57,56.36-31.31,84.45-41.04,3.24,46.05,31.39,80.18,71.8,99.71,12.91,6.24,27.65,9.74,38.68,19.32,1.89,1.64,15,15.59,15.32,16.68,1.27,4.29-.14,14.55.16,19.84.39,6.9,1.57,14.07,2.03,20.97.31,4.63-.96,20.97,2.42,23.58,3.17,2.45,22.86-.39,27.82-1.36,2.85-.55,6.21-.89,6.77-4.29,2.04-12.42-18.34-5.71-25.01-6.46.16-5.98.38-12.55.04-18.53-.42-7.5-4.09-26.44-.07-31.98,6.24-8.59,38.6-18.16,49.7-23.3,9.69-4.49,16-5.51,15.31-17.66-.69-12.07-5.72-24.86-8.47-36.55,8.2-5.9,12.61-16.04,18.97-22.99,6.24-6.81,15.84-11.47,20.52-20.56,1.64-.86,16.7,6.45,20.05,7.1l.69.96c.04.42-.74.77-.74,1.02v183.5c-10.27-.62-21.35-3.53-31.51-3.99-36.48-1.67-70.73,23.67-98.01,45-37.63-3.35-75.34-7.28-111.9-16.89-1.82-15.72.43-31.88-.59-47.6-1.22-18.66-6.46-45.87-14.13-62.87-1.71-3.79-10.22-22.4-15.95-15.23-2.48,3.1,3.51,12.43,4.8,16.38,8.43,25.79,11.21,55.18,11.29,82.21-12.41-4.66-23.98-9.18-37.45-10.04-37.03-2.37-74.56,5.48-103.05,30.03-2.26.42-1.38-.99-1.49-2.48-1.19-16.28,2.84-45.92,5.13-62.89ZM48.99,679c-2.58,2.39-6.38-10.46-6.72-11.77-2.34-9.11-4.8-26.71-.68-35.13,6.72-13.72,40.7-28.93,55.19-32.81,22.48-6.02,58.82-7.29,79.89,3.54,6.34,3.25,10.58,5.21,7.3,13.18-30.96-6.34-65.09-1.75-92.65,13.82-18.28,10.33-38.09,27.71-42.34,49.17ZM444.27,628.68c-3.97-1.86-5.94-1.59-10.49-2.96-3.3-.99-6.24-3.37-9.52-4.48-5.25-1.79-28.85-10.84-27.29.21.58,4.12,16.07,7.8,20.37,10.72,16.04,10.88,11.23,31.39,3.17,45.83-2.4-5.41-2.04-10.9-4.33-16.67-2.86-7.19-8.36-13.24-15.16-16.84-4.24-2.24-14.68-6.82-18.09-2.05-5.71,7.98,8.85,9.43,14.01,13.13,11.21,8.05,12.98,25.04,8.26,37.14-.59,1.5-6.44,11.26-8.19,9.3.56-15.27-2.24-28.73-17.75-34.75-4.33-1.68-17.01-5.4-17.35,1.26-.29,5.76,8.43,6.67,12.79,9.31,24.25,14.68,3.76,58.36-22.7,41.67-.37-1.67,10.3-10.24,11.55-14.44.63-2.11,1.16-8.46-.47-9.62-5.12-3.62-12.23,8.01-16.06,11.08-11.45,9.19-22.86,11.69-37.22,9.19-4.76-.83-11.21-3.77-15.29-3.78-10.69-.04-37.11,7.9-50.17,9.91-38.54,5.92-76.9,7.97-115.82,4.16-19.53-1.91-51.97-5.45-62.06-24.94-18.66-36,35.14-66.72,64.21-71.72,38.92-6.7,64.77,3.96,102.97,10.57,19.35,3.35,60.82,10.05,78.88,8.1,8.35-.9,22.14-14.01,29.78-19.22,12.45-8.5,27.2-18.01,41.73-22.27,22.04-6.47,36.99-.77,58.51,1.48,6.6.69,32.43-2.51,26.72,10.76-2.31,5.37-20.51,12.02-24.97,9.93ZM514,666.5v19.5l-63-27v-19l63,26.5ZM492,644.5v-19.5l22,9v20l-22-9.5ZM482,639c-1.68,1.43-1.24.5-3,0-1.54-.43-10.01-3.64-9.98-4.5,3.73-2.81,8.44-5.45,10.98-9.5.46-.73-.39-3.69,1.99-4,.01,5.66.02,11.34.01,17,0,.5,1.24-.06,0,1ZM468,699l-8-4c-.34-.06-.71.08-1,0-2.99-.87-4.9-2.47-7.84-3.18-.49-.51-.07-1.26-.16-1.82-.14-.9.04-2.02,0-3-.02-.33,0-.67,0-1-.02-.67.01-1.33,0-2-.04-2.32-.04-4.68,0-7,.01-.67-.02-1.33,0-2,.05-1.49-.49-3.92.49-4.99l16.51,6.99v22ZM490,708l-12-4v-21l12,4v21ZM514,700c.19,2.96-.01,6.03,0,9,0,1,.02,2,0,3-.05,2.99.04,6.01-.01,8.99h-.98c-.05-.99.03-2-.01-2.99-.63.1-1.46-.15-2,0-2.77.76-4.43-.32-7-2-.86-.56-2.66-.82-3-2-1.67-6.45-1.67-15.55,0-22,1.73,1.22,12.39,4.54,12.86,5.17.47.63.08,1.98.14,2.83ZM514,619c-.05.64.15,1.58,0,2-.12.32.16.81-.52.99-.49,0-1,.06-1.48,0l-30.38-13.12c-5.86-8.76-12.37-11.59-22.39-13.61-1.82-.37-8.23.17-8.23-1.77v-19.5l62,27c1.63,1.84,1.25,14.6,1,18ZM513,520c.08.64-.11,1.39,0,2,.02.13,1.56.23.99,2-1.5-1.16-3.39-1.32-4.99-2-2.73-1.16-5.3-2.79-8-4-2.28-6.41-.4-14.25-.99-21,.92.56,2.04.63,2.99,1,1.68.65,9.26,4.16,10,5,1.8,2.03,1.53,13.92,0,17ZM514,438.5v19.5c-5.78-2.52-15.36-5.12-20-9-.33-.28-.76-.66-1-1-.2-.28-.9-.52-1-1-.1-.51-.05-1.42,0-2v-18s9,4,9,4c2.05.67,3.17,1.71,4,2,.93.33,1.52.82,2,1,.29.11.71-.11,1,0,2.05.81,4.83,1.32,7.01,2.01.37,1.01-1.01,2.09-1.01,2.49ZM515.49,425.01c-2.04-.68-6.2-2.26-7.49-4l30-2.01c.11-.02.77-.83,2-1,6.92-.95,14.04-1.29,21-2,8.56-.88,21.42-3.13,29.58-2.09.57.07,5.09,3.01,5.83,3.29,1.7.64,2.97.5,4.58-.19.8,3.29-3.09,1.81-4.99,2-5.97.59-11.97,1.3-18,1-.73.12-1.77.8-3,1-13.48,2.15-38.71,6.57-51.51,6.07-2.97-.12-5.28-1.16-7.99-2.07ZM543,457c-3.01.3-7.32,1.07-10,1l-8,1v-21.01s90-11,90-11v21c-24.05,1.2-48.09,6.6-72,9ZM615,458v23l-25,3v-21.5c7.3-3.23,16.95-2.44,25-4.5ZM579,485l-.56.91-18.44,2.09v-23c4.11.6,7.95-1.2,12-1l7-1v22ZM549,476c.02.67,0,1.33,0,2-.01,1,.05,2.01,0,3-.07,1.32.15,2.7,0,4-.11.96-.85,1.52-1,2-.22.72.3,2.03-.04,2.93l-23.96,3.07v-23c7.58-.82,15.18-1.82,22.75-2.77,1.17-.15,1.75-.87,2.25.77.45,1.49-.05,5.89,0,8ZM526,519c-1.21-3.09-2.13-8.49-2-12,.04-1.13-.46-2.54,1-3l75-10c.67-.02,1.34.03,2,0,3.15.09,9.44-2.25,12-2,.44.04.83-.08.99.51.11,1.5-.06,3,.01,4.49.26,5.3-.19,10.7,0,16.01-.58.56-13.79.68-16.01.99-.1.49-.53.93-1,1-21.47,3.13-46.15,7.32-67.51,8.99-2.66.21-9,.79-6.22-2.79.27-.35,1.63-.06,1.72-.2.16-.23-.05-1.39,0-2ZM524,622c-.04-.32.02-.67,0-1-.1-1.65.03-3.34,0-5-.02-1.33-.03-2.67,0-4,.07-3.32-.05-6.68,0-10,0-.75.43-.8,1-1,6.73-2.41,16.92-1.85,24-4v22.5c0,.35-1.1,1.18-1.65,1.35l-22.84,3.17c-.93.08-.41-1.24-.51-2.01ZM524,635c4.8-.61,11.3-2.22,16-2,.65.03,1.48-.13,2,0l70.75-10.8c.8-.36,2.25.94,2.25,1.3v19.5c-14.99,1.96-30.02,3.94-45,6-4.98.69-10.02,1.34-15,2-10.31,1.37-20.61,3.17-31,4v-20ZM578.86,615.82c-1.28,1.6-9.4,1.25-11.86,1.18-.33,0-.67.02-1,0l-5.99,2v-23s.99-1,.99-1c.64-.07,1.38.11,2,0,2.24-.39,6.9-1.08,9-1l7-1v19c.05.64.04,1.36,0,2-.04.61.23,1.24-.14,1.82ZM598.63,613.13c-2.86.34-5.89.95-8.62,1.87.67-6.5-.95-14.76,0-21,.05-.35-.1-.76,0-1,1.18-2.91,20.94-3.01,25-5v22.5c0,1.9-13.8,2.32-16.37,2.63ZM614,577c-.53.18-1.48-.18-2,0-10.06,3.56-25.4,3.59-36.38,5.12-13.7,1.91-30.96,6.02-44.31,6.49-1.77.06-3.51-.8-5.32-.62-.03.66.03,1.33,0,1.99-.63-.05-1.87.14-1.99,0-.4-.45-.03-10.09,0-11.99,0-.33,0-.67,0-1,.06-2.97-.12-5.98.05-8.95,9.25-1.58,18.6-2.19,27.95-3.05.66-.06,1.34.06,2,0,14.44-3.2,29.32-4.2,44-6,.67,0,1.33.01,2,0,.86-1.75,3.49-.76,5-1,.32-.05.67.05,1,0l1-1c.33-.05.67.04,1,0,1.59-.19,3.44.23,5,0,.11-.02.83-1.42,1.99-1,.06.99-.05,2,0,3,.25,4.21.58,12.09,0,16-.14.98.33,1.54-1,2ZM567,551.99l-43,5.01v-21l42-5c.49.13.9.51,1,1,1.18,5.65-1.1,14.05,0,19.99ZM577.99,527.99l37.01-3.99v21c-8.89.31-20.49,4.24-29,4-.65-.02-1.43.11-2,0l-6,1v-22.01ZM524,670c.32-2.27-1.35-3.21,1.51-3.99,12.25-3.37,27.51-2.2,40.04-5.77,1.95.16,1.74,16.22,1.46,18.76-.04.33.03.67,0,1-.38.96-1.18.87-2,1-.32.25-.74.96-1,1-3.33.51-11.32,2.01-14,2-.66,0-1.35-.06-2,0l-23.99,4c.38-5.14-.56-10.97,0-16,.06-.59-.14-1.88,0-2ZM615,708c-15.73,1.64-31.33,5.07-47,7-.65.08-1.35-.08-2,0-5.14.52-40.52,7.53-42,6.01-.06-1.99.08-4.01,0-6.01-.12-3.29-.09-6.71,0-10,.04-1.39-.64-5.35.63-6.05l90.37-12.95v22ZM615,674c-.19.92-.42.73-1,1-.19.09-.66,0-1,0-.66,0-1.35.06-2,0-1.45,1.34-3.23,1.12-5,1-.66-.04-1.34.03-2,0-3.24.79-24.97,4.35-26.03,3.58-2.71-1.97,1.22-16.36-.03-19.97.48-1.82,32.64-4.83,37.07-5.62-.82,5.86,1.11,14.57,0,20ZM620.23,413.27l-61.23-20.76c6.95-3.76,18.23,2.1,17-10.51,12.07,1.81,20.18,12.91,30.09,19.41,8.21,5.39,18.25,10.42,27.81,12.69-.15,22.87-3.22,45.53-6.12,68.17l-1.76,1.73c-.01-11.99-.02-24.01-.01-36,0-7.76-.84-16.57,1-24-.42-6.42-.83-7.68-6.77-10.73ZM729.71,570.21c-9.07,46.63-36.32,69.39-84.71,56.29-3.66-.99-13.54-3.92-16.32-5.68-2.85-1.8-1.63-8.44-1.68-11.82-1.85-4.47-.99-10.92-1-16,0-2,0-4,0-6,0-.25,0-.5,0-.75-1.57-.48-2.77-1.78-2.59-3.95.71-8.32.94-16.7,2.2-24.95.05-8.58.56-17.04,2.39-24.35,2.02-8.05,4.58-17.04,7.22-25.71-.15-1.08-.13-2.21.08-3.34.63-3.44,1.36-6.87,2.1-10.29-.15-.64-.22-1.33-.19-2.07.05-1.17.24-2.2.53-3.2-.11-7.26,1.27-14.76,2.43-21.49,2.29-13.23,4.69-26.25,4.93-39.71-.13-1.43-.23-2.87-.24-4.3,0,0,0,0,0-.01-.93-3.11.71-7.11,4.92-7.11,1.12,0,2.04.29,2.8.75l1.89.47h5.55c6.7-5.72-4.19-10.01-8.72-11.77-26.99-10.52-35.27-11.13-58.28-31.22-2.56-1.34-14.25-5.32-15-7-.18-.4.12-1.38,0-2-.06-.32.05-.68,0-1-.1-.59,0-1.35,0-2,0-.91-1.03-2.21-.76-3.35.25-1.07,2.03-2.36,2.76-3.65,1.2-2.1,5.84-11.41,6.49-12.01,3.13-2.89,12.91,3.84,15.16,6.36,5.74,6.4,2.99,12.78,14.31,18.19,7.88,3.77,13.25.87,18.37,2.63,2.05.71,7.27,10.2,14.84,12.16,6.34,1.64,15.07-.99,18.09-.18,1.02.27,7.72,4.67,10.73,5.86,5.04.49,9.31-.35,14-2,4.27-3.05,9.64-10.29,12-15,2.22-4.42,11.36-27.66,1.65-26.78-5.08.46-8.96,17.76-11.48,22.45-3.05,5.68-13.19,15.06-18.87,8.04-5.42-6.7,3.22-27.89,6.84-35.07,1.89-3.75,13.72-19.52,9.27-22.75-7.65-5.56-18.71,16.32-21.27,21.75-.95,2.02-6.14,13.89-6.14,14.86v17.5c-35.7,9.8-16.73-49.23-6.4-61.9,1.31-1.6,4.68-2.6,5.26-4.82,1.77-6.8-4.95-6.3-9.36-3.28-11.52,7.9-22.9,42.9-21.5,57-9.26,1.55-17.21-2.16-17.04-12.46.14-8.66,6.05-40.55,10.06-47.77,1.48-2.67,10.43-5.97,7.51-11.77-2.89-5.75-11.57,1.99-14.54,4.48-17.96,15.08-29.21,35.87-44.02,52.98-5.29,6.12-10.65,13.35-18.95,7.01-5.26-4.02-3.41-9.56-1.78-14.74,7.02-22.28,37.21-66.32,60.55-72.45,24.48-6.42,65.79,17.4,83.22,34.19,31.09,29.96,29.18,67.06,21.33,106.81,5.11,54.46,21.98,111.32,11.37,165.91ZM606.51,321.02c-.9,2.76-.5,14.15-3.85,13.85-8.43-.75,1.26-10.96,3.85-13.85Z"/>
    <path class="cls-3" d="M191,741c-6.03,1.85-13.6.99-20,1,6.07-1.95,13.55-.86,20-1Z"/>
    <path class="cls-3" d="M170,742c-6.3,0-12.71.24-19,0,5.37-1.67,13.55-1.68,19,0Z"/>
    <path class="cls-3" d="M440,594c-10.27-.62-21.35-3.53-31.51-3.99-36.48-1.67-70.73,23.67-98.01,45-37.63-3.35-75.34-7.28-111.9-16.89-1.82-15.72.43-31.88-.59-47.61-1.22-18.66-6.46-45.87-14.13-62.87-1.71-3.79-10.22-22.4-15.95-15.23-2.48,3.1,3.51,12.43,4.8,16.38,8.43,25.79,11.21,55.18,11.29,82.21-12.41-4.66-23.98-9.18-37.45-10.04-37.03-2.37-74.56,5.48-103.06,30.03-2.26.42-1.38-.99-1.49-2.48-1.19-16.28,2.84-45.92,5.13-62.89,5.85-43.4,16.59-91.25,52.41-119.59,23.48-18.57,56.36-31.31,84.45-41.04,3.24,46.05,31.39,80.18,71.8,99.71,12.91,6.24,27.65,9.74,38.68,19.32,1.89,1.64,15,15.59,15.32,16.68,1.27,4.29-.14,14.55.16,19.84.39,6.9,1.57,14.07,2.03,20.97.31,4.63-.96,20.97,2.42,23.58,3.17,2.45,22.86-.39,27.82-1.36,2.85-.55,6.21-.89,6.77-4.29,2.04-12.42-18.34-5.71-25.01-6.46.16-5.98.38-12.55.04-18.53-.42-7.5-4.09-26.44-.07-31.98,6.24-8.59,38.6-18.16,49.7-23.3,9.69-4.49,16-5.51,15.31-17.66-.69-12.07-5.72-24.86-8.47-36.55,8.2-5.9,12.61-16.04,18.97-22.99,6.24-6.81,15.84-11.47,20.52-20.56,1.64-.86,16.7,6.45,20.05,7.1l.69.96c.04.42-.74.77-.74,1.02v183.5ZM337.65,529.3c-10.2.57-11.51,15.55-4.94,17.48,14.81,4.35,15.57-18.08,4.94-17.48Z"/>
    <path class="cls-2" d="M416.9,185.08c2.54,4.75,2.82,9.8,4.1,14.91-10.77-2.77-22.28-7.22-32.93-1.42-4.85,2.64-9.99,8-9.98,13.84.02,11.12,11.87.82,17.65-.17,6.89-1.18,23.61,1.86,26.75,8.78,2.48,5.45-1.21,32.47-.47,41.47,1.58,19.22,13.67,38.01,7.98,58.51-6.68-2.25-12.72-6.32-19.89-7.1-.3-30.57-34.61-44.2-37.09-74.41-.29-3.57,1.26-13.61.9-14.83-1.95-6.63-7.82,4.41-8.63,7.13-4.32,14.35,1.99,30.59,9.91,42.53,10.16,15.32,31.03,30.39,19.99,51.37-12.44,23.65-38.73,3.38-55.89-1.48-1.99-1.08-5.17-4.01-5.86-6.15-1.55-4.85,4.74-18.56-5.18-14.29-6.32,2.72-5.68,11.58-7.23,12.77-.69.52-6.35,1.99-8.69,3.31-7.23,4.06-14.66,12.49-23.07,13.93-12.75,2.18-21.31-3.51-27.09-14.44-1.35-2.56-2.54-9.43-4.84-10.19-6.74-2.23-11.37,9.37-12.08,14.63-4.35,32.39,30.03,59.29,60.24,59.31,5.67,0,16.97-3.39,20.79-2.86,3.2.44,12.64,5.96,17.72,7.29,15.25,3.97,28.84,2.68,41-7.98,1.55-1.36,4.92-6.19,5.64-6.4,3.13-.91,19.29,4.94,24.35,2.89-2.07,15.84-15.99,24.92-25.52,35.98-9.74,11.29-12.45,21.98-27.5,28.5-16.31,7.06-32.86,5.92-48.28-2.68-5.08-2.83-11.42-9.77-15.45-11.55-3.41-1.5-8.76-1.39-12.46-2.54-32.18-10.07-60.21-30.43-74.27-61.73-2.34-5.21-9.56-32-10.93-33.07-2.92-2.3-7.63,1.27-11.35,1.83-29.66,4.48-56.71-35.59-44.74-61.74,7.17-15.65,25.93-17.79,38.04-6.05,6.76,6.56,14.24,25.73,20.11,29.89,8.64,6.11,21.99.94,26.53-8.17,5.83-11.68,2.21-24.03-5.1-34.03,12.65-13.45,12.16-33.58,4.94-49.57,27.05-10.68,55.63-39.19,86.38-35.96,25.93,2.72,48.37,21.04,74.12,22.88,9.33.67,18.33-1.05,27.38-2.91ZM339.76,214.75c4.69-4.75-.54-15.1-5.42-18.59-19.9-14.2-53.49-3.24-62.82,18.85-1.77,4.18-4.9,14.04.51,16.49,4.69,2.13,8.46-5.81,11.96-9.02,9.62-8.8,21.6-15.18,35.06-13.04,5.9.94,12.46,5.67,16.68,6.37,1.22.2,3.18-.2,4.03-1.06ZM324.61,250.05c-3.07.51-2.45,10.6-8.87,13.2-9.79,3.97-15.16-5.76-20.2-5.27-6.26.61-2.56,8.92.06,11.93,12.1,13.9,39.58,3.24,33.95-14.96-.44-1.43-3.37-5.16-4.94-4.9ZM394,251.99c-7.6-1.44-9.1,3.73-7.77,10.28,1.43,7.02,11.25,11.54,17.79,10.33,4.79-.88,12.92-6.55,12.67-11.95-.48-10.27-8.62-.6-12.44.13-6.33,1.22-11.81-1.76-10.25-8.8ZM185.76,304.75c4.66-4.74-4.36-22.56-8.35-26.66-3.78-3.88-17.99-10.46-18.5-1.59-.35,6.03,4.61,5.18,8.43,7.66,3.13,2.03,6.25,6.66,8.05,9.95s4.6,16.5,10.37,10.64ZM336.1,399.1c-5.67,9.7,23.33,18.59,31.34,8.85,1.76-2.14,3.49-7.8-.1-8.85-1.88-.55-7.78,2.97-11.84,2.98-3.77.01-18.26-4.94-19.4-2.99Z"/>
    <path class="cls-2" d="M444.27,628.68c-3.97-1.86-5.94-1.59-10.49-2.96-3.3-.99-6.24-3.37-9.52-4.48-5.25-1.79-28.85-10.84-27.29.21.58,4.12,16.07,7.8,20.37,10.72,16.04,10.88,11.23,31.39,3.17,45.83-2.4-5.41-2.04-10.9-4.33-16.67-2.86-7.19-8.36-13.24-15.16-16.84-4.24-2.25-14.68-6.82-18.09-2.05-5.71,7.98,8.85,9.43,14.01,13.13,11.21,8.05,12.98,25.04,8.26,37.14-.59,1.5-6.44,11.26-8.19,9.3.56-15.27-2.24-28.73-17.75-34.75-4.33-1.68-17.01-5.4-17.35,1.26-.29,5.76,8.43,6.67,12.79,9.31,24.25,14.68,3.76,58.36-22.7,41.67-.37-1.67,10.3-10.24,11.55-14.44.63-2.11,1.16-8.46-.47-9.62-5.12-3.62-12.23,8.01-16.06,11.08-11.45,9.19-22.86,11.69-37.22,9.19-4.76-.83-11.21-3.77-15.29-3.78-10.69-.04-37.11,7.9-50.17,9.91-38.54,5.92-76.9,7.97-115.82,4.16-19.53-1.91-51.97-5.45-62.06-24.94-18.66-36,35.14-66.72,64.21-71.72,38.92-6.7,64.77,3.96,102.97,10.57,19.35,3.35,60.82,10.05,78.88,8.1,8.35-.9,22.14-14.01,29.78-19.22,12.45-8.5,27.2-18.01,41.73-22.27,22.04-6.47,36.99-.77,58.51,1.48,6.6.69,32.43-2.51,26.72,10.76-2.31,5.37-20.51,12.02-24.97,9.93Z"/>
    <path class="cls-2" d="M718.34,404.3c7.86-39.75,9.77-76.85-21.33-106.81-17.43-16.8-58.74-40.61-83.22-34.19-23.35,6.12-53.54,50.16-60.55,72.45-1.63,5.18-3.48,10.72,1.78,14.74,8.3,6.34,13.65-.89,18.95-7.01,14.81-17.11,26.06-37.9,44.02-52.98,2.98-2.5,11.65-10.23,14.54-4.48,2.92,5.8-6.03,9.1-7.51,11.77-4,7.22-9.91,39.11-10.06,47.77-.17,10.3,7.78,14.01,17.04,12.46-1.41-14.1,9.97-49.1,21.5-57,4.4-3.02,11.13-3.52,9.36,3.28-.58,2.22-3.96,3.22-5.26,4.82-10.33,12.68-29.3,71.71,6.4,61.9v-17.5c0-.97,5.19-12.84,6.14-14.86,2.56-5.43,13.62-27.31,21.27-21.75,4.44,3.23-7.38,18.99-9.27,22.75-3.62,7.18-12.26,28.37-6.84,35.07,5.68,7.02,15.82-2.36,18.87-8.04,2.52-4.69,6.4-21.99,11.48-22.45,9.71-.88.57,22.35-1.65,26.78,1.46,3.05-2.1,8.9-3.61,11.89-8,15.97-18.35,27.75-32.18,38.82-4.91,40.55-10.11,81.95-20.51,121.49-1.21,4.59-4.29,15.18-8.1,24.84-.7,6.91-2.17,14.27-7.9,18.45-1.32.96-2.61,1-3.68.49,0,0-.01,0-.02.01-.26.12-.69-.09-1,0h-1c0,2,0,4,0,6,1.9,4.5.92,10.88,1,16,.06,3.38-1.17,10.02,1.68,11.82,2.78,1.76,12.66,4.69,16.32,5.68,48.39,13.1,75.64-9.66,84.71-56.29,10.61-54.59-6.26-111.45-11.37-165.91Z"/>
    <path class="cls-3" d="M245.92,135.87c-34.17,18.85-62.04,47.57-81.58,81.2-2.58.54-20.34-9.97-23.65-12.25-26.4-18.22-20.36-34.59-4.5-58.13s40.83-46.37,63.49-62.51c2.95-2.1,18.01-13.19,20.31-11.75,1.54.96,10.74,21.46,12.18,24.89,5.27,12.58,9.4,25.64,13.75,38.55Z"/>
    <path class="cls-1" d="M321.81,35.2c8.46,15.47,15.2,33.02,17.92,50.58.95,6.14.37,13.18,2.28,19.22-30.04,4.26-59.34,12.79-87,25.01-4.35-21.78-14.78-41.47-24.25-61.31l-.34-2.71c28.56-14.65,59.5-26.48,91.39-30.79Z"/>
    <path class="cls-6" d="M402.99,109c-13.93-4.46-28.93-5.36-43.53-5.05-2.28.05-4.53,1.7-6,.1-2.48-24.99-7.4-50.39-20.46-72.04,14.42-.82,31.08-2.17,45.48-.99,6.78.55,22,4.39,26.53,9.47,10.9,12.24,2.73,53.27-2.03,68.52Z"/>
    <path class="cls-3" d="M351.8,116.3c8.22-.58,44.86-1.27,48.7,6.7,5.01,10.36-6.71,8.44-11.99,9.01-59.16,6.41-108.62,20.67-158.82,53.18-7.24,4.69-27.16,21.64-34.02,21.46-11.62-.3-.43-12.63,3.36-17.12,36.01-42.61,97.54-69.33,152.77-73.23Z"/>
    <path class="cls-3" d="M183.98,616c-30.96-6.34-65.09-1.75-92.65,13.82-18.28,10.33-38.09,27.71-42.34,49.17-2.58,2.39-6.38-10.46-6.72-11.77-2.34-9.11-4.8-26.71-.68-35.13,6.72-13.72,40.7-28.93,55.19-32.81,22.48-6.02,58.82-7.29,79.89,3.54,6.34,3.25,10.58,5.21,7.3,13.18Z"/>
    <path class="cls-2" d="M285,438c2.5.86,6.1.57,8.74,1.76,4.05,1.83,10.62,8.4,15.94,11.06,10.84,5.4,23.24,7.81,35.31,7.19,2.08,1.87-25.15,43.87-28.53,47.99-8.16-5.91-13.77-14.22-22.55-19.42-19.22-11.38-35.29-13.57-54.92-28.58,4.42,2.97,7.2-4.02,10.53-6.97,6.85-6.06,18.95-11.22,28.02-12.07,3.22-.3,6.03,2.58,7.44-.96Z"/>
    <path class="cls-5" d="M608,557c.64,1.83,4.57.6,5,1,.64.59.3,15.46.07,17.45-.1.85-.88.6-1.63.59l.56.96c-10.06,3.56-25.4,3.59-36.38,5.12-13.7,1.91-30.96,6.02-44.31,6.49-1.77.06-3.51-.8-5.32-.62.27-6.3-.19-12.7,0-19.01.95-.92,23.21-.68,26.01-3.99.66-.06,1.34.06,2,0,14.63-1.38,29.96-1.75,44-6,.67,0,1.33.01,2,0,.94-.02,3.22,1.64,5-1,.32-.05.67.05,1,0,.3-.04.74-.96,1-1,.33-.05.67.04,1,0Z"/>
    <path class="cls-5" d="M533,458c-.65-.02-4.78-2.05-7.01-1,.7-3.23-1.62-16.85,1.64-17.87l85.36-10.14v17l-1.99-1.99c-.12.93.52,2.88-.55,3.06-3.21.55-8.68,0-11.97.43-17.05,2.23-34.97,4.56-52.06,7.48-1.87.32-4-1.13-3.43,2.02-3.01.3-7.32,1.07-10,1Z"/>
    <path class="cls-5" d="M602,494c.13,0,.99,1.08,2.41,1.05,2.63-.05,5.62-1.76,8.59-1.05v18c-28.14,1.99-56.09,7.73-84.21,10.3-1.76.16-3.19,2.12-2.79-1.3.15-.23-.05-1.39,0-2,.39-4.52-.3-9.42,0-13.99,23.56-2.71,47.05-5.55,70.5-9.05,1.87-.28,4.05,1.26,3.49-1.96.67-.02,1.34.03,2,0Z"/>
    <path class="cls-5" d="M542,633c1.32.32,2.75,4.41,4.7.04l65.33-8.61c1.11.81,1.27,9.77.91,10.94-.23.77-1.93.6-1.97,1.22-.09,1.23,1.66,3.6,1.03,5.42-12.9,1.09-25.72,3.12-38.52,5.04-1.87.28-4.06-1.26-3.49,1.96-4.98.69-10.02,1.34-15,2-1.06-1.76-3.71-1.01-5.37-.87-7.92.64-15.87,1.99-23.63,3.87v-18c4.55-1.43,10.07.06,14-3,.65.03,1.48-.13,2,0ZM576.5,632v1c.65-.33.65-.67,0-1Z"/>
    <polygon class="cls-6" points="514 535 514 556 451 530 451 509 514 535"/>
    <path class="cls-6" d="M513,601c.59,5.73-1.28,12.64,1,18-.05.64.15,1.58,0,2l-2,1-30.38-13.12c-5.86-8.76-12.37-11.59-22.39-13.61-1.82-.37-8.23.17-8.23-1.77v-19.5l62,27Z"/>
    <path class="cls-6" d="M513,470v20c-18.09-5.2-42.27-17.84-60-26v-20c3.47-.73,52.34,23.52,60,26Z"/>
    <polygon class="cls-6" points="514 686 451 659 451 640 514 666.5 514 686"/>
    <path class="cls-1" d="M627,424c-.42-6.42-.83-7.68-6.77-10.73l-61.23-20.76c6.95-3.76,18.23,2.1,17-10.51,12.07,1.81,20.18,12.91,30.09,19.41,8.21,5.39,18.25,10.42,27.81,12.69-.15,22.87-3.22,45.53-6.12,68.17l-1.76,1.73c-.01-11.99-.02-24.01,0-36,1.66-1.04,1-3.8,1.02-5.49.06-5.96.37-12.66-.02-18.51Z"/>
    <path class="cls-3" d="M337,499.99c4.63-8.02,10.79-15.12,15.17-23.32,2.47-4.63,6.24-16.79,8.38-19.62,1.51-2,7.18-3.36,9.44-5.04.74,6.23,8.89,26.2,6.52,31-.87,1.77-7.7,5.15-9.84,6.16-3.49,1.66-28.37,11.79-29.67,10.82Z"/>
    <path class="cls-5" d="M524,670c.48-.42,2.08,1.16,2.56-3.07l38.44-4.93c-.47,6.21,1.13,13.14-.99,19-2.1.19-13.44.59-14.01,1-.18.13.12,1.57,0,2-.66,0-1.35-.06-2,0-.18.02-.78-1.27-3.44-1.04-6.01.51-12.58,2-18.55,3.04.21-3.87-.12-7.7-.42-11.54-.13-1.66,1.68-2.86-1.59-2.45.06-.59-.14-1.88,0-2Z"/>
    <path class="cls-5" d="M564,682v-1c.33-.03.68.05,1,0-.32.25-.74.96-1,1Z"/>
    <path class="cls-5" d="M604,676c-.19,0-1.39-1.1-3.39-1.06-3.39.06-19.07,3.8-20.66,2.65-1.54-5.26-.49-11.92-.94-17.57l33.48-5.03.51,20.01c-.66,0-1.35.06-2,0-1.3-.11-5.66-3.28-5,1-.66-.04-1.34.03-2,0Z"/>
    <path class="cls-5" d="M584,549c-.14-.03-.4-1.46-1.42-1.61-.85-.13-3.19.99-3.58.6-.59-.6.71-14.5.17-16.83,1.14-1.88,24.74-5.52,28.36-3.18l-.52-1.96,5.98-1.02c-.1,5.83-.88,11.19.02,17-4.84-1.78-5.16,2.35-6.63,2.84-3.24,1.08-12.62,1.55-16.89,2.19-1.87.28-4.05-1.26-3.49,1.96-.65-.02-1.43.11-2,0Z"/>
    <path class="cls-6" d="M477,573c-8.58-2.63-17.61-8.01-26-11.5v-19.5c1.41-.18,2.68.08,4.03.47,6.7,1.95,13.55,7.27,19.97,9.53,1.6,1.22,3.53,1,4.03,3.48.52,2.61.26,11.04.04,14.12-.14,2.02-.17,2.45-2.07,3.41Z"/>
    <path class="cls-6" d="M454,412c-.84,2.95,3.03,2.03,5.42,2.76l.58-.76c4.4,1.5,8.91,3.77,13,6,2.52,1.38,1,1.22,5,2,.32.06.68-.05,1,0l-.49,19.99c-8.33-3.66-16.42-8.12-25.41-10.09l-.1-19.9c.2-.07.7-.03,1,0Z"/>
    <polygon class="cls-6" points="514 634 514 654 492 644.5 492 625 514 634"/>
    <path class="cls-6" d="M513,568c-1.36,5.69,2.62,15.83-2,20-6.34-2.61-12.4-6.01-19-8v-21c4.24,2.14,18.42,6.11,21,9Z"/>
    <path class="cls-5" d="M561,365c1.22,1.21,2.79.23,3.08,2.44.19,1.39.34,11.17-.08,11.57-.83.81-6.91-1.89-6.01,1.99-.62.11-1.36-.09-2,0-3.36-3.21-21.23,2.9-23,1-.41-.44.83-4.36-1-5-.04-1.33-.02-2.67,0-4,3.6.87,1.36-3.4,1.99-4.01.81-.77,19.28-.33,22.01-2.99.33-.01.67.02,1,0,.86-.06,1.69-.04,2-1,.65-.06,1.34,0,2,0Z"/>
    <path class="cls-6" d="M501,431c2.05.67,3.17,1.71,4,2l2,1c.29.11.71-.11,1,0,.52,1.81,5,2.71,5,3v19l-19-7c-.33-.28-.76-.66-1-1l-1-1c-.1-.51-.05-1.42,0-2,.02-.2,1.02-1.09,1.04-2.42.07-4.52-.14-9.07-.04-13.58.6-.68,5.63,2.07,6.95,2.45.6.18.99-.47,1.04-.46Z"/>
    <path class="cls-5" d="M572,464c.38.02,4.01,2.01,6.01.99-.07,5.8.12,11.63-.08,17.44-.06,1.72-2.48,2.91,1.08,2.57l-.56.91-18.44,2.09v-23c4.11.6,7.95-1.2,12-1Z"/>
    <path class="cls-6" d="M547,399c2.38.44,4.12,1.95,6,3,.19.1.31,1.18.99,1.5,1.59.75,4.13-.29,4.01,1.49-9.68.1-19.65.54-28.99,3.01-.33.03-.67-.03-1,0l-1,1c-.65.07-1.34-.07-2,0-3.56-2.03-9.34-.42-13.51.03-1.88.2-4.04-1.21-3.49,1.97-.98.1-2.02-.09-3,0-2.91-2.62-7.37-.15-10.51-.01-4.18.19-8.41-.39-12.49.01-.89-.26-1.46-.81-2-1l-1-4c.67.02,1.33,0,2,0,18.61.2,39.74-1.89,58.57-4.98,1.88-.31,4,1.13,3.43-2.02.33,0,.67,0,1,0,.14,1.5,2.86,1.5,3,0Z"/>
    <path class="cls-5" d="M572,594c.31.01,4.04,2.05,6,1.01-.84,4.88-.33,10.34.07,15.41.06.78.91,1.38.93,1.58.05.64.04,1.36,0,2l-12,3c-.33,0-.67.02-1,0-1.66-.09-3.35.08-5.01,0,.58-5.86-.74-12.89-.07-18.57.24-2.02,2.6-1.15,2.08-3.44,2.24-.39,6.9-1.08,9-1Z"/>
    <path class="cls-6" d="M561,416c8.56-.88,21.42-3.13,29.58-2.09.56.07,5.09,3.01,5.83,3.29,1.7.64,2.97.5,4.58-.19.8,3.29-3.09,1.81-4.99,2-.99-1.55-3.92-1.17-5.53-1.06-4.16.31-8.66,1.41-12.47,2.06-.73.12-1.77.8-3,1-1.03-1.71-3.73-1.06-5.37-.89-13.28,1.38-41.5,7.2-52.84,3.59-1.05-.34-3.03-.24-2.79-1.69,7.24-.78,15.37-.99,22.49-2.03.93-.14,1.41-.96,1.5-.98.11-.02.77-.83,2-1,5.17,2.22,12,.57,17.51-.03,1.88-.2,4.04,1.22,3.49-1.97Z"/>
    <path class="cls-6" d="M463,502c-4.04-1.59-8.5-2.79-12-5.5v-21.5c3.57,1.33,6.53,3.49,10,5l.5.98.5-.98c.81.33,1.47.79,2,1,1.28,1.1,2.63,1.6,3.01,3.49.31,1.56.56,16.84-.02,17.51-.39.45-3.46-1.91-3.99,0Z"/>
    <path class="cls-2" d="M533,458l-8,1v-21.01s90-11,90-11v21c-24.05,1.2-48.09,6.6-72,9-.57-3.15,1.55-1.7,3.43-2.02,17.09-2.92,35.02-5.25,52.06-7.48,3.28-.43,8.76.12,11.97-.43,1.07-.18.44-2.14.55-3.06l1.99,1.99v-17l-85.36,10.14c-3.26,1.02-.95,14.64-1.64,17.87,2.23-1.05,6.36.98,7.01,1Z"/>
    <path class="cls-2" d="M524,705c.04-1.39-.64-5.35.63-6.05l90.37-12.95v22c-15.73,1.64-31.33,5.07-47,7-.59-2.98,1.44-1.8,3.3-2.14,10.36-1.91,20.17-2.91,30.58-5.27,3.05-.69,9.38-.26,10.68-4.49,1.92-6.29-3-5.36-2.64-8.52.05-.45,5.31-2.77,3.07-7.57-6.95.55-14.43,3.74-20.98,4.51-1.91.22.3,1.3,0,2.48-3.31.9-1.48-2.52-2.02-2.97-.36-.3-9.11.3-8,2.97h-.97s-.57-2.04-.57-2.04l-55.44,8.06c-.23.16,3.25,5.81-1,4.99Z"/>
    <path class="cls-2" d="M344,375.99c-1.53-1.53.52-1.73,1.29-2.23,6.33-4.12,15.15-6.54,21.37-11.56l12.32,6.3c-5.55,6.21-16.26,9.98-24.45,9.49-1.31-.08-10.15-1.62-10.53-2Z"/>
    <path class="cls-6" d="M501,692c1.73,1.22,12.39,4.54,12.86,5.17s.08,1.98.14,2.83c-1.68,1.86-1.68,7.14,0,9,0,1,.02,2,0,3-1.61,1.05-1.07,4.15-1,6-.63.1-1.46-.15-2,0l-6.51-2.98-.49.98c-.86-.56-2.66-.82-3-2-1.42-4.95,1.05-16.25,0-22Z"/>
    <path class="cls-6" d="M451,675c3.07-5.28,10.54,3.06,15,3v16.5c0,2.49-4.74.74-6,.5-.34-.06-.71.08-1,0,.77-3.01-2.14-1.73-3.75-2.69s-1.26-3.22-4.25-2.31c-.14-.9.04-2.02,0-3l.98-.5-.98-.5c-.02-.67.01-1.33,0-2,1.65-1.26,1.65-5.74,0-7,.01-.67-.02-1.33,0-2Z"/>
    <polygon class="cls-6" points="490 687 490 708 478 704 478 683 490 687"/>
    <path class="cls-2" d="M542,633l70.75-10.8c.8-.36,2.25.94,2.25,1.3v19.5c-14.99,1.96-30.02,3.94-45,6-.56-3.23,1.63-1.68,3.49-1.96,12.79-1.92,25.61-3.95,38.52-5.04.63-1.82-1.12-4.19-1.03-5.42.04-.62,1.74-.45,1.97-1.22.36-1.17.2-10.13-.91-10.94l-65.33,8.61c-1.95,4.38-3.38.29-4.7-.04Z"/>
    <path class="cls-6" d="M513,503v17c.08.64-.11,1.39,0,2-1.12-.82-3.45-1.72-4,0-2.73-1.16-5.3-2.79-8-4,.34-5.42-.44-11.22-.07-16.59.14-2.02.17-2.45,2.07-3.41,1.68.65,9.26,4.16,10,5Z"/>
    <path class="cls-6" d="M486,490l4.04,1.67-.05,21.33c-.82.86-11.5-3.39-11.99-5,1.66-2.02,1.71-7.79,0-10,.04-.66-.07-1.35,0-2,.16-1.46,1.99-4.39,1-7l7,1Z"/>
    <path class="cls-2" d="M566,531l1,1c1.18,5.65-1.1,14.05,0,19.99l-43,5.01v-21l42-5ZM565,532c-10.96,2.01-23.43,2.03-34.26,4.24-1.09.22-4.74,1.34-4.74,2.26v16.5l39-5v-18Z"/>
    <path class="cls-2" d="M615,458v23l-25,3v-21.5c7.3-3.23,16.95-2.44,25-4.5ZM610.93,461.06c-.59-.73-17.34,1.81-18.45,2.93-2.74,2.75,5.48,1.72,2.52,4.01-.47.37-2.7-.7-3.07.55-.92,3.14,1.3,8.79.07,12.43,3.33,1.85,5.65-.53,7.62-.67,1.72-.12,11.8.29,12.38-.29.39-2.39-.61-4.88-.47-7.15s3.72-6.24-.53-5.87v-.98c5.47-.63.44-2.11.3-2.33-.57-.89-.14-2.33-.37-2.62Z"/>
    <path class="cls-2" d="M584,549l-6,1v-22.01s37-3.99,37-3.99v21c-8.89.31-20.49,4.24-29,4-.56-3.22,1.62-1.68,3.49-1.96,4.27-.64,13.65-1.11,16.89-2.19,1.47-.49,1.79-4.63,6.63-2.84-.9-5.81-.12-11.17-.02-17l-5.98,1.02.52,1.96c-3.61-2.34-27.21,1.3-28.36,3.18.54,2.34-.76,16.23-.17,16.83.39.39,2.73-.73,3.58-.6,1.02.15,1.28,1.58,1.42,1.61Z"/>
    <path class="cls-2" d="M614,492c.06,1.6-.62,4.15,1,5,.26,5.3-.19,10.7,0,16.01-.58.56-13.79.68-16.01.99-.47.07-.89.52-1,1-21.47,3.13-46.15,7.32-67.51,8.99-2.66.21-9,.79-6.22-2.79.27-.35,1.63-.06,1.72-.2-.4,3.42,1.03,1.46,2.79,1.3,28.12-2.57,56.07-8.31,84.21-10.3v-18c-2.97-.7-5.96,1-8.59,1.05-1.42.03-2.28-1.06-2.41-1.05,3.15.09,9.44-2.25,12-2Z"/>
    <path class="cls-2" d="M590,593c1.18-2.91,20.94-3.01,25-5v22.5c0,1.9-13.8,2.32-16.37,2.63-2.86.34-5.89.95-8.62,1.87.67-6.5-.95-14.76,0-21l.98-.5-.98-.5ZM613,590.01c-7.16.64-13.95,2.34-20.89,4.09-.34,16.44-1.91,20.38,16.15,16.66,9.02-1.85,2.18-5.66,2.75-10.2.17-1.36,1.64-2.4,1.76-3.33.29-2.27-.76-4.88.24-7.22Z"/>
    <path class="cls-2" d="M525,601c6.73-2.41,16.92-1.85,24-4v22.5c0,.35-1.1,1.18-1.65,1.35l-22.84,3.17c-.93.08-.41-1.24-.51-2.01l.98-.5-.98-.5c-.1-1.65.03-3.34,0-5,1.56-.41,1.5-3.68,0-4,.07-3.32-.05-6.68,0-10l1-1ZM526,602v19c2.56-1,5.12.29,7.53.12,1.86-.14,1.33-1.8,1.96-1.93,1.23-.25,9.12,1.19,10.51-.19-2.35-4.89.94-4.77,1.08-6.47.33-3.99-1.77-9.05-.1-13.52-2.59,1.43-8.49-.41-8.01,2.99h-.97s-.44-1.94-.44-1.94c-4.98-.11-3.97,5.29-4.58,5.95-2.5,2.72-1.81-3.83-1.98-4.01-.26-.27-3.91.19-5.01,0Z"/>
    <path class="cls-2" d="M604,676c-3.24.79-24.97,4.35-26.03,3.58-2.71-1.97,1.22-16.36-.03-19.97.48-1.82,32.64-4.83,37.07-5.62-.82,5.86,1.11,14.57,0,20l-1,1c-.19.09-.66,0-1,0l-.51-20.01-33.48,5.03c.46,5.65-.6,12.31.94,17.57,1.59,1.15,17.27-2.59,20.66-2.65,1.99-.03,3.2,1.06,3.39,1.06Z"/>
    <path class="cls-5" d="M538,419c-.09.01-.57.84-1.5.98-7.12,1.04-15.25,1.25-22.49,2.03-.24,1.44,1.74,1.35,2.79,1.69,11.34,3.62,39.56-2.2,52.84-3.59,1.64-.17,4.34-.82,5.37.89-13.48,2.15-38.71,6.57-51.51,6.07-2.97-.12-5.28-1.16-7.99-2.07-2.04-.68-6.2-2.26-7.49-4l30-2.01Z"/>
    <path class="cls-2" d="M549,468c-1.68,1.58-1.67,6.46,0,8,.02.67,0,1.33,0,2-1.5.14-1.5,2.86,0,3-.07,1.32.15,2.7,0,4l-1,2c-.22.72.3,2.03-.04,2.93l-23.96,3.07v-23c7.58-.82,15.18-1.82,22.75-2.77,1.17-.15,1.75-.87,2.25.77ZM547,469c-3.39.65-10.6.22-13.39,1.14-1.91.63-1.19,5.6-7.61.86v20l21-3v-19ZM530.5,471v1c.65-.33.65-.67,0-1Z"/>
    <path class="cls-2" d="M600,494c.56,3.22-1.62,1.68-3.49,1.96-23.45,3.49-46.94,6.34-70.5,9.05-.31,4.57.38,9.47,0,13.99-1.21-3.09-2.13-8.49-2-12l1-3,75-10Z"/>
    <path class="cls-2" d="M567,679l-.98.5.98.5c-.38.96-1.18.87-2,1-.32.05-.67-.03-1,0,2.13-5.85.52-12.79.99-19l-38.44,4.93c-.48,4.23-2.07,2.64-2.56,3.07.32-2.27-1.35-3.21,1.51-3.99,12.25-3.37,27.51-2.2,40.04-5.77,1.95.16,1.74,16.22,1.46,18.76Z"/>
    <path class="cls-2" d="M564,681v1c-3.33.51-11.32,2.01-14,2,.11-.43-.19-1.87,0-2,.57-.41,11.91-.81,14.01-1Z"/>
    <path class="cls-2" d="M540,633c-3.93,3.06-9.45,1.57-14,3v18c7.76-1.88,15.7-3.23,23.63-3.87,1.66-.14,4.31-.89,5.37.87-10.31,1.37-20.61,3.17-31,4v-20c4.8-.61,11.3-2.22,16-2Z"/>
    <path class="cls-5" d="M543,399c.57,3.15-1.55,1.71-3.43,2.02-18.83,3.09-39.95,5.18-58.57,4.98l62-7Z"/>
    <path class="cls-6" d="M480,625c1.36,3.13,2.55,12.01-1,14-1.54-.44-10.01-3.64-9.98-4.5,3.73-2.81,8.44-5.45,10.98-9.5Z"/>
    <path class="cls-2" d="M552,565c-2.8,3.32-25.05,3.08-26.01,3.99-.19,6.31.27,12.71,0,19.01-.03.66.03,1.33,0,1.99-.63-.05-1.87.14-1.99,0-.4-.45-.03-10.09,0-11.99l.98-.5-.98-.5c.06-2.97-.12-5.98.05-8.95,9.25-1.58,18.6-2.19,27.95-3.05Z"/>
    <path class="cls-5" d="M451,675c.05-1.49-.49-3.92.49-4.99l16.51,6.99v22l-8-4c1.26.24,6,1.99,6-.5v-16.5c-4.46.06-11.93-8.28-15-3Z"/>
    <path class="cls-2" d="M566,715c-5.14.52-40.52,7.53-42,6.01-.06-1.99.08-4.01,0-6.01l2.01,5.01c8.35-2.05,16.9-2.99,25.43-4.11,5.19-.68,10.7-.43,14.56-.9Z"/>
    <path class="cls-2" d="M524,672c3.27-.4,1.46.8,1.59,2.45.3,3.84.63,7.67.42,11.54,5.97-1.04,12.54-2.53,18.55-3.04,2.66-.23,3.26,1.06,3.44,1.04l-23.99,4c.38-5.14-.56-10.97,0-16Z"/>
    <path class="cls-2" d="M598,559c-14.04,4.25-29.37,4.62-44,6,14.44-3.2,29.32-4.2,44-6Z"/>
    <path class="cls-5" d="M553,402c3.24.42,8.77,1.58,11,3.99l-35,2.01c9.35-2.47,19.32-2.91,28.99-3.01.12-1.78-2.42-.74-4.01-1.49-.68-.32-.8-1.4-.99-1.5Z"/>
    <path class="cls-6" d="M606.51,321.02c-.9,2.76-.5,14.15-3.85,13.85-8.43-.75,1.26-10.96,3.85-13.85Z"/>
    <path class="cls-2" d="M516,377c-.73-.4-8-2.57-8-3v-17l14,8.5v15.5c-2.43.59-4.59-3.23-6-4,.97.36,2.76.04,3.99,1,.36-3.19,1.2-12.33-1.64-14.09-1.52-.94-6.23-1.61-8.34-2.9.63,8.5-3.2,12.53,5.99,15.99Z"/>
    <path class="cls-5" d="M453,412l.1,19.9c8.98,1.97,17.08,6.43,25.41,10.09l.49-19.99c.72.12,2.14-.51,2.02.61.26,7.21-.16,14.33-1.51,21.38-3.21-2.3-26.2-10.55-27.02-11.98-1.57-2.72-2.75-18.85.51-20.01Z"/>
    <path class="cls-2" d="M532,377c1.83.64.6,4.56,1,5,1.77,1.9,19.64-4.21,23-1-.23.03-1.11.88-2.41,1.05-6.92.86-14.6.47-21.58,1.95-.07-2.32.07-4.68,0-7Z"/>
    <path class="cls-2" d="M613,557l2,2c.25,4.21.58,12.09,0,16l-1,2c-.53.18-1.48-.18-2,0l-.56-.96c.75.01,1.53.26,1.63-.59.23-1.99.57-16.86-.07-17.45-.43-.4-4.36.83-5-1,1.59-.19,3.44.23,5,0Z"/>
    <path class="cls-5" d="M505,411c-10.11.96-12.51,3.11-23,0,4.08-.4,8.31.18,12.49-.01,3.14-.14,7.6-2.61,10.51.01Z"/>
    <path class="cls-5" d="M453,464c-.47-.21-1.91.62-2.05-.59.29-4.44-.24-8.98.05-13.41l.98-.5-.98-.5c.15-1.42.24-4.63,2-5v20Z"/>
    <path class="cls-2" d="M556,366c-2.73,2.66-21.2,2.23-22.01,2.99-.64.6,1.6,4.87-1.99,4.01.03-1.67-.03-3.34,0-5.01,8.05-.32,15.93-1.71,24.01-1.99Z"/>
    <path class="cls-5" d="M475,552c1.15.4,4.68.11,5.05,1.66l.95,20.34c-1.64.42-2.74-.61-3.99-1,1.9-.95,1.93-1.39,2.07-3.41.21-3.08.48-11.51-.04-14.12s-2.43-2.26-4.03-3.48Z"/>
    <path class="cls-5" d="M526,355c-1.41-.76-3.52-1.19-4-2.99l18.35-2.08,3.65,6.07c-5.46-.94-11.87,2.53-16.98.49-.63-.25-.8-1.37-1.01-1.49,4.24-.42,9.86.92,13.76-.74,1.43-.61,1.51-.26,1.24-2.26-.68-.55-11.46.72-13.49,1.02-1.76.26-1.67-.52-1.5,1.98Z"/>
    <path class="cls-2" d="M563,595c.52,2.29-1.84,1.42-2.08,3.44-.67,5.68.65,12.71.07,18.57,1.66.07,3.35-.1,5.01,0l-5.99,2v-23s.99-1,.99-1c.64-.07,1.38.11,2,0Z"/>
    <path class="cls-5" d="M508,434c2.05.81,4.83,1.32,7.01,2.01.37,1.01-1.01,2.09-1.01,2.49v19.5c-5.78-2.52-15.36-5.12-20-9l19,7v-19c0-.29-4.48-1.19-5-3Z"/>
    <path class="cls-2" d="M572,464l7-1v22c-3.55.34-1.13-.85-1.07-2.57.2-5.81.01-11.64.08-17.44-2,1.02-5.63-.98-6.01-.99Z"/>
    <path class="cls-2" d="M572,594l7-1v19c-.02-.2-.87-.8-.93-1.58-.4-5.07-.91-10.53-.07-15.41-1.95,1.04-5.68-.99-6-1.01Z"/>
    <path class="cls-5" d="M561,416c.56,3.18-1.6,1.76-3.49,1.97-5.51.6-12.34,2.25-17.51.03,6.92-.95,14.04-1.29,21-2Z"/>
    <path class="cls-2" d="M561,365c.91,0,3.87-.15,4,0,.5.52-.41,12.22.06,14.39-.36,1.3-5.73,1.38-7.06,1.61-.91-3.88,5.18-1.18,6.01-1.99.41-.4.26-10.17.08-11.57-.29-2.2-1.86-1.22-3.08-2.44Z"/>
    <path class="cls-5" d="M464,481c1.05.42,3.74.39,4.04,1.66l-.05,21.33c-.37.41-3.9-1.56-4.99-1.99.54-1.91,3.6.45,3.99,0,.57-.66.33-15.95.02-17.51-.38-1.89-1.73-2.4-3.01-3.49Z"/>
    <path class="cls-5" d="M525,409c-5.64.56-11.35,1.42-17,2-.56-3.18,1.6-1.76,3.49-1.97,4.18-.45,9.95-2.06,13.51-.03Z"/>
    <path class="cls-5" d="M513,568c2.5,2.8.22,16.5.99,21-1.45.41-2.01-.59-2.99-1,4.62-4.17.64-14.31,2-20Z"/>
    <path class="cls-5" d="M482,638v1c-1.68,1.43-1.24.5-3,0,3.55-1.99,2.36-10.87,1-14,.46-.73-.39-3.69,1.99-4,.01,5.66.02,11.34,0,17Z"/>
    <path class="cls-3" d="M626,448c0-7.76-.84-16.57,1-24,.38,5.85.08,12.55.02,18.51-.02,1.69.64,4.45-1.02,5.49Z"/>
    <path class="cls-5" d="M503,498c-1.9.95-1.93,1.39-2.07,3.41-.37,5.37.41,11.17.07,16.59-2.28-6.41-.4-14.25-.99-21,.92.56,2.04.63,2.99,1Z"/>
    <path class="cls-5" d="M501,714c-1.67-6.45-1.67-15.55,0-22,1.05,5.75-1.42,17.05,0,22Z"/>
    <path class="cls-5" d="M513,470c2.44,2.38.26,16.31,1,20.5-.41,1.45-.95-.48-1-.5v-20Z"/>
    <path class="cls-5" d="M596,419c-5.97.59-11.97,1.3-18,1,3.81-.65,8.31-1.75,12.47-2.06,1.61-.12,4.54-.49,5.53,1.06Z"/>
    <path class="cls-5" d="M501,431c-.05-.02-.44.63-1.04.46-1.32-.39-6.35-3.13-6.95-2.45-.11,4.51.11,9.06.04,13.58-.02,1.33-1.03,2.22-1.04,2.42v-18s9,4,9,4Z"/>
    <path class="cls-5" d="M514,619c-2.28-5.36-.41-12.27-1-18,1.63,1.84,1.25,14.6,1,18Z"/>
    <path class="cls-5" d="M479,406l1,4c-2.23-.79-5.6-1.39-7.99-2.01.66-1.86,5.41-2.04,6.99-1.99Z"/>
    <path class="cls-5" d="M513,520v-17c1.8,2.03,1.53,13.92,0,17Z"/>
    <path class="cls-2" d="M579,614c-.04.61.23,1.24-.14,1.82-1.28,1.6-9.4,1.25-11.86,1.18l12-3Z"/>
    <path class="cls-6" d="M627,609c-1.85-4.47-.99-10.92-1-16,1.9,4.5.92,10.88,1,16Z"/>
    <path class="cls-5" d="M692,386c-3.4,2.43-6.94,4.2-11.43,3.74-1.49-.15-2.03-1.53-2.57-1.74,5.04.49,9.31-.35,14-2Z"/>
    <path class="cls-5" d="M486,490l-7-1c.99,2.61-.84,5.54-1,7v-9s8,3,8,3Z"/>
    <path class="cls-5" d="M478,508c-.42-1.37-.13-7.95,0-10,1.71,2.21,1.66,7.98,0,10Z"/>
    <path class="cls-2" d="M611,675c-1.45,1.34-3.23,1.12-5,1-.66-4.28,3.7-1.11,5-1Z"/>
    <path class="cls-5" d="M514,712c-.05,2.99.04,6.01-.01,8.99h-.98c-.05-.99.03-2-.01-2.99-.07-1.85-.61-4.95,1-6Z"/>
    <path class="cls-5" d="M514,709c-1.68-1.86-1.68-7.14,0-9,.19,2.96-.01,6.03,0,9Z"/>
    <path class="cls-5" d="M451,690c2.99-.91,2.65,1.36,4.25,2.31s4.52-.32,3.75,2.69c-2.99-.87-4.9-2.47-7.84-3.18-.49-.51-.07-1.26-.16-1.82Z"/>
    <path class="cls-6" d="M549,476c-1.67-1.54-1.68-6.42,0-8,.45,1.49-.05,5.89,0,8Z"/>
    <path class="cls-5" d="M513,522c.02.13,1.56.23.99,2-1.5-1.16-3.39-1.32-4.99-2,.55-1.72,2.88-.82,4,0Z"/>
    <path class="cls-5" d="M451,684c-.04-2.32-.04-4.68,0-7,1.65,1.26,1.65,5.74,0,7Z"/>
    <path class="cls-2" d="M605,558c-1.78,2.64-4.06.98-5,1,.86-1.75,3.49-.76,5-1Z"/>
    <path class="cls-5" d="M478,422c-4-.78-2.48-.62-5-2,1.89-.04,3.92.28,5,2Z"/>
    <path class="cls-5" d="M460,414l-.58.76c-2.39-.73-6.25.19-5.42-2.76.79.07,4.69,1.55,6,2Z"/>
    <path class="cls-6" d="M615,497c-1.62-.85-.94-3.4-1-5,.44.04.83-.08.99.51.11,1.5-.06,3,.01,4.49Z"/>
    <path class="cls-6" d="M613,557c.11-.02.83-1.42,1.99-1,.06.99-.05,2,0,3l-2-2Z"/>
    <path class="cls-5" d="M524,616c-.02-1.33-.03-2.67,0-4,1.5.32,1.56,3.59,0,4Z"/>
    <path class="cls-5" d="M547,399c-.14,1.5-2.86,1.5-3,0,.96.02,2.16-.15,3,0Z"/>
    <path class="cls-5" d="M524,507c.04-1.13-.46-2.54,1-3l-1,3Z"/>
    <path class="cls-6" d="M549,481c-1.5-.14-1.5-2.86,0-3-.01,1,.05,2.01,0,3Z"/>
    <path class="cls-5" d="M211,387l-1-2c.47.76.74,1.61,1,2Z"/>
    <path class="cls-5" d="M507,434l-2-1c.93.33,1.52.82,2,1Z"/>
    <path class="cls-5" d="M514,621c-.12.32.16.81-.52.99-.49,0-1,.06-1.48,0l2-1Z"/>
    <path class="cls-6" d="M548,487l1-2c-.11.96-.85,1.52-1,2Z"/>
    <path class="cls-5" d="M511,718c-2.77.76-4.43-.32-7-2l.49-.98,6.51,2.98Z"/>
    <path class="cls-6" d="M614,577l1-2c-.14.98.33,1.54-1,2Z"/>
    <path class="cls-2" d="M559,365c-.31.96-1.14.94-2,1,.29-.98,1.15-.92,2-1Z"/>
    <path class="cls-5" d="M216,394l-1-2c.7.92.9,1.88,1,2Z"/>
    <path class="cls-2" d="M606,558l1-1c-.26.04-.7.96-1,1Z"/>
    <path class="cls-5" d="M451,687c-.02-.33,0-.67,0-1l.98.5-.98.5Z"/>
    <path class="cls-5" d="M567,680l-.98-.5.98-.5c-.04.33.03.67,0,1Z"/>
    <path class="cls-6" d="M614,675l1-1c-.19.92-.42.73-1,1Z"/>
    <path class="cls-5" d="M527,409l1-1c-.07,0-.3.93-1,1Z"/>
    <path class="cls-5" d="M524,578c0-.33,0-.67,0-1l.98.5-.98.5Z"/>
    <path class="cls-5" d="M218,396l-1-1c.3.35.69.65,1,1Z"/>
    <path class="cls-3" d="M482,639v-1c0,.5,1.24-.06,0,1Z"/>
    <path class="cls-5" d="M524,622c-.04-.32.02-.67,0-1l.98.5-.98.5Z"/>
    <path class="cls-5" d="M461,480c.28.12.71-.12,1,0l-.5.98-.5-.98Z"/>
    <path class="cls-5" d="M493,448c-.2-.28-.9-.52-1-1l1,1Z"/>
    <path class="cls-6" d="M451,450c.02-.33-.04-.67,0-1l.98.5-.98.5Z"/>
    <path class="cls-5" d="M524,602c0-.75.43-.8,1-1l-1,1Z"/>
    <path class="cls-5" d="M560,596l1-1-1,1Z"/>
    <path class="cls-5" d="M567,532l-1-1c.49.13.9.51,1,1Z"/>
    <path class="cls-5" d="M590,594c.05-.35-.1-.76,0-1l.98.5-.98.5Z"/>
    <path class="cls-5" d="M578,365c-.06-.32.06-.68,0-1l.98.5-.98.5Z"/>
    <path class="cls-5" d="M598,515c.11-.48.53-.93,1-1-.1.49-.53.93-1,1Z"/>
    <path class="cls-4" d="M337.65,529.3c10.63-.59,9.87,21.83-4.94,17.48-6.57-1.93-5.26-16.91,4.94-17.48Z"/>
    <path class="cls-4" d="M339.76,214.75c-.85.86-2.81,1.26-4.03,1.06-4.22-.69-10.78-5.43-16.68-6.37-13.46-2.14-25.44,4.24-35.06,13.04-3.5,3.2-7.27,11.14-11.96,9.02-5.42-2.46-2.28-12.31-.51-16.49,9.33-22.08,42.92-33.05,62.82-18.85,4.89,3.49,10.12,13.83,5.42,18.59Z"/>
    <path class="cls-4" d="M324.61,250.05c1.57-.26,4.5,3.46,4.94,4.9,5.63,18.19-21.86,28.86-33.95,14.96-2.61-3.01-6.32-11.32-.06-11.93,5.04-.49,10.41,9.23,20.2,5.27,6.42-2.6,5.79-12.68,8.87-13.2Z"/>
    <path class="cls-4" d="M185.76,304.75c-5.77,5.86-8.61-7.41-10.37-10.64s-4.92-7.92-8.05-9.95c-3.82-2.48-8.78-1.62-8.43-7.66.51-8.87,14.72-2.29,18.5,1.59,3.99,4.09,13.01,21.92,8.35,26.66Z"/>
    <path class="cls-4" d="M394,251.99c-1.56,7.04,3.92,10.02,10.25,8.8,3.82-.74,11.96-10.4,12.44-.13.25,5.39-7.88,11.06-12.67,11.95-6.54,1.21-16.37-3.31-17.79-10.33-1.33-6.55.18-11.72,7.77-10.28Z"/>
    <path class="cls-4" d="M336.1,399.1c1.14-1.95,15.63,3,19.4,2.99,4.06-.02,9.96-3.53,11.84-2.98,3.59,1.05,1.86,6.71.1,8.85-8.01,9.73-37.01.85-31.34-8.85Z"/>
    <path class="cls-2" d="M576.5,632c.65.33.65.67,0,1v-1Z"/>
    <path class="cls-5" d="M524,705c4.25.82.77-4.83,1-4.99l55.44-8.06.57,2.05h.97c-1.11-2.67,7.63-3.27,8-2.97.54.45-1.29,3.87,2.02,2.97.31-1.18-1.9-2.26,0-2.48,6.56-.77,14.04-3.96,20.98-4.51,2.24,4.8-3.02,7.12-3.07,7.57-.37,3.16,4.56,2.22,2.64,8.52-1.29,4.24-7.63,3.8-10.68,4.49-10.41,2.36-20.22,3.36-30.58,5.27-1.86.34-3.89-.84-3.3,2.14-.65.08-1.35-.08-2,0-3.87.47-9.38.21-14.56.9-8.53,1.12-17.08,2.06-25.43,4.11l-2.01-5.01c-.12-3.29-.09-6.71,0-10Z"/>
    <path class="cls-5" d="M565,532v18l-39,5v-16.5c0-.92,3.65-2.04,4.74-2.26,10.83-2.21,23.29-2.23,34.26-4.24Z"/>
    <path class="cls-5" d="M610.93,461.06c.23.29-.2,1.72.37,2.62.14.23,5.17,1.7-.3,2.33v.98c4.26-.37.67,3.69.54,5.87s.86,4.76.47,7.15c-.58.58-10.66.17-12.38.29-1.97.14-4.29,2.52-7.62.67,1.23-3.63-.99-9.29-.07-12.43.36-1.25,2.59-.18,3.07-.55,2.96-2.29-5.26-1.26-2.52-4.01,1.11-1.12,17.86-3.65,18.45-2.93Z"/>
    <path class="cls-5" d="M613,590.01c-1,2.34.05,4.95-.24,7.22-.12.92-1.59,1.96-1.76,3.33-.56,4.54,6.27,8.35-2.75,10.2-18.07,3.72-16.49-.22-16.15-16.66,6.94-1.75,13.73-3.44,20.89-4.09Z"/>
    <path class="cls-5" d="M526,602c1.1.19,4.75-.28,5.01,0,.17.18-.52,6.73,1.98,4.01.61-.66-.4-6.06,4.58-5.95l.44,1.94h.97c-.48-3.4,5.42-1.56,8.01-2.99-1.67,4.47.42,9.53.1,13.52-.14,1.7-3.43,1.58-1.08,6.47-1.39,1.38-9.29-.06-10.51.19-.63.13-.1,1.8-1.96,1.93-2.41.18-4.97-1.11-7.53-.12v-19Z"/>
    <path class="cls-5" d="M547,469v19l-21,3v-20c6.42,4.74,5.7-.23,7.61-.86,2.79-.92,10-.49,13.39-1.14Z"/>
    <path class="cls-5" d="M530.5,471c.65.33.65.67,0,1v-1Z"/>
    <path class="cls-5" d="M516,377c-9.19-3.47-5.37-7.5-5.99-15.99,2.11,1.29,6.82,1.96,8.34,2.9,2.85,1.77,2,10.91,1.64,14.09-1.23-.96-3.02-.64-3.99-1Z"/>
    <path class="cls-6" d="M526,355c-.17-2.5-.25-1.72,1.5-1.98,2.03-.3,12.81-1.57,13.49-1.02.28,2,.19,1.65-1.24,2.26-3.9,1.66-9.51.32-13.76.74Z"/>
  </g>
</svg>